<svg width="292" height="260" viewBox="0 0 292 260" fill="none" xmlns="http://www.w3.org/2000/svg">
<path d="M29.6602 231.698C29.6602 231.698 54.3786 265.642 139.863 257.985C225.351 250.329 342.843 175.285 267.997 115.504C193.149 55.7228 52.4654 110.259 137.054 143.581C137.054 143.581 110.864 123.283 140.498 112.032C163.551 103.278 181.576 104.247 188.277 105.882C191.118 106.576 194.308 106.756 196.519 107.352C214.284 112.139 284.115 129.668 252.347 188.73C223.281 242.773 129.808 250.491 94.4295 251.444C83.8967 251.73 73.6512 250.782 63.8115 248.495C51.4453 245.624 35.7887 240.413 29.6602 231.698Z" fill="#373435"/>
<path d="M49.9566 29.2191C44.3992 35.4111 41.763 43.1043 39.9243 52.5282C38.0772 61.9592 37.4997 72.1216 38.1929 83.0199C38.8838 93.9223 40.7716 104.681 43.8535 115.294C46.936 125.911 51.2451 136.007 56.7927 145.584C62.3304 155.165 69.0697 163.232 77.001 169.797C84.924 176.356 93.9881 181.105 104.177 184.041C114.36 186.976 125.651 187.161 138.045 184.59C150.656 181.975 160.649 177.488 168.026 171.117C175.405 164.752 182.802 158.755 187.663 152.784C190.596 149.181 205.708 126.499 205.914 126.342C202.727 140.047 197.408 152.616 189.963 164.046C186.949 168.879 183.274 173.744 178.936 178.637C174.598 183.532 169.577 188.101 163.881 192.326C158.176 196.562 151.691 200.218 144.42 203.303C137.144 206.39 128.956 208.561 119.859 209.816C107.123 211.828 95.4901 211.869 84.9546 209.953C74.4143 208.034 65.0248 204.888 56.762 200.496C48.5049 196.11 41.2796 190.824 35.1061 184.631C28.9262 178.449 23.6946 172.011 19.4211 165.322C15.1397 158.639 11.7056 151.991 9.11927 145.374C6.52539 138.761 4.70895 132.93 3.66655 127.886C0.672037 113.362 0.0450102 99.29 1.81005 85.675C3.55883 72.0577 7.74767 59.673 14.3584 48.5211C20.9669 37.3666 29.9637 27.7689 41.3446 19.7329C72.881 -2.55457 120.412 -7.68641 153.828 13.2911C122.985 8.38299 75.6808 0.55333 49.9566 29.2191Z" fill="#373435"/>
</svg>